<svg width="21" height="18" viewBox="0 0 21 18" fill="none" xmlns="http://www.w3.org/2000/svg">
<path d="M18.4993 7V2.33333C18.4993 1.97971 18.3589 1.64057 18.1088 1.39052C17.8588 1.14048 17.5196 1 17.166 1H2.49935C2.14573 1 1.80659 1.14048 1.55654 1.39052C1.30649 1.64057 1.16602 1.97971 1.16602 2.33333V15.6667C1.16602 16.0203 1.30649 16.3594 1.55654 16.6095C1.80659 16.8595 2.14573 17 2.49935 17H17.166C17.5196 17 17.8588 16.8595 18.1088 16.6095C18.3589 16.3594 18.4993 16.0203 18.4993 15.6667V11M19.7393 6.33333H13.166C12.4588 6.33333 11.7805 6.61428 11.2804 7.11438C10.7803 7.61448 10.4993 8.29276 10.4993 9C10.4993 9.70724 10.7803 10.3855 11.2804 10.8856C11.7805 11.3857 12.4588 11.6667 13.166 11.6667H19.7393C19.7641 11.6667 19.7878 11.6568 19.8053 11.6393C19.8228 11.6218 19.8327 11.5981 19.8327 11.5733V6.42667C19.8327 6.40191 19.8228 6.37817 19.8053 6.36067C19.7878 6.34317 19.7641 6.33333 19.7393 6.33333Z" stroke="white"/>
</svg>
