<svg width="90" height="90" viewBox="0 0 90 90" fill="none" xmlns="http://www.w3.org/2000/svg">
<path d="M78.75 84.375V22.5H61.875V5.625H11.25V84.375H0V90H39.375V73.125H50.625V90H90V84.375H78.75ZM33.75 61.875H22.5V50.625H33.75V61.875ZM33.75 45H22.5V33.75H33.75V45ZM33.75 28.125H22.5V16.875H33.75V28.125ZM50.625 61.875H39.375V50.625H50.625V61.875ZM50.625 45H39.375V33.75H50.625V45ZM50.625 28.125H39.375V16.875H50.625V28.125ZM73.125 61.875H61.875V50.625H73.125V61.875ZM73.125 45H61.875V33.75H73.125V45Z" fill="#4F4F4F"/>
</svg>
