<svg width="90" height="90" viewBox="0 0 90 90" fill="none" xmlns="http://www.w3.org/2000/svg">
<g clip-path="url(#clip0_2173_107296)">
<mask id="mask0_2173_107296" style="mask-type:luminance" maskUnits="userSpaceOnUse" x="0" y="0" width="90" height="90">
<path d="M90 45C90 20.1472 69.8528 0 45 0C20.1472 0 0 20.1472 0 45C0 69.8528 20.1472 90 45 90C69.8528 90 90 69.8528 90 45Z" fill="white"/>
</mask>
<g mask="url(#mask0_2173_107296)">
<path d="M45 90C69.8528 90 90 69.8528 90 45C90 20.1472 69.8528 0 45 0C20.1472 0 0 20.1472 0 45C0 69.8528 20.1472 90 45 90Z" fill="#2546F0"/>
<path d="M61.136 42.9609C60.9602 32.5547 54.8078 35.2266 44.9992 31.1484C35.1906 35.2266 29.0383 32.5547 28.8625 42.9609C28.8274 44.9297 29.0735 46.8984 30.3039 48.5156C31.9914 50.6953 35.9641 53.5078 44.9992 53.2266C54.0344 53.5078 58.0071 50.6953 59.6946 48.5156C60.925 46.8984 61.1711 44.9297 61.136 42.9609Z" fill="#6EB22A"/>
<path d="M31.8523 42.645C31.6413 43.3833 31.5007 44.6841 31.6062 46.0903C31.6765 47.2153 32.1335 48.8676 32.5906 49.8169C33.0476 50.7661 33.5046 51.1528 33.5046 51.1528C32.8015 49.7466 32.6257 45.4223 32.4851 43.4184C32.4148 42.645 31.9577 42.188 31.8523 42.645Z" fill="#4B8F07"/>
<path d="M58.1484 42.645C58.0078 42.188 57.5859 42.645 57.5156 43.4184C57.375 45.4575 57.1992 49.7466 56.4961 51.1528C56.4961 51.1528 56.9883 50.7661 57.4102 49.8169C57.8672 48.8325 58.3242 47.2153 58.3945 46.0903C58.5 44.6841 58.3594 43.3833 58.1484 42.645Z" fill="#4B8F07"/>
<path d="M76.3594 77.0273C75.0586 71.4727 70.8398 67.043 65.3555 65.4609L50.9695 61.3301L50.2734 54.1406H39.7266L39.0234 61.4074L24.6445 65.5664C19.1602 67.1484 14.9414 71.5781 13.6406 77.1328L10.8984 96.2227H22.1484L23.3789 80.4023L23.9062 96.2227H45V96.1523H66.0938L66.6211 80.332L67.8516 96.1523H79.1016L76.3594 77.0273Z" fill="#EBD6AD"/>
<path d="M32.2427 41.8025C31.7259 34.4081 37.5854 28.125 44.9981 28.125C52.4108 28.125 58.2703 34.4078 57.7538 41.8025L57.326 47.9268C57.1666 50.2087 56.377 52.4015 55.0451 54.2612C53.7132 56.1209 51.8913 57.5744 49.7821 58.4599C47.9709 59.2205 46.0044 59.5383 44.0458 59.387C42.0872 59.2357 40.1928 58.6196 38.5199 57.5899C36.847 56.5601 35.4436 55.1463 34.4263 53.4658C33.409 51.7853 32.807 49.8864 32.6702 47.9268L32.2427 41.8025Z" fill="#EBD6AD"/>
<path d="M33.3909 32.055C35.2542 29.4183 35.0503 27.4924 41.3081 26.1213C47.5659 24.7502 53.519 27.2527 56.1557 29.2566C56.4018 29.4675 57.576 32.0399 57.576 32.1805C57.9979 35.9774 57.8671 42.8205 57.6561 42.8557C57.2694 42.9612 54.8436 33.5745 52.8397 36.7034C51.0116 39.551 47.0038 41.1682 44.4022 42.012C43.453 42.3284 43.8397 39.5862 42.9257 39.9377C41.7304 40.4299 40.4647 42.1877 39.1288 42.469C37.7929 42.7502 40.4296 38.8127 40.0429 38.3909C39.3046 37.512 37.3358 41.1682 35.9999 40.7463C35.4725 40.5705 35.4374 38.637 34.9804 39.0588C33.6796 40.2541 32.7655 45.4573 32.3085 43.2424C31.7105 40.219 31.5277 34.6917 33.3909 32.055Z" fill="#EDEDED"/>
<path d="M35.3582 39.1868C35.1443 38.7777 34.8497 39.2069 34.4961 39.7598C34.6757 38.9809 34.8211 36.1064 34.8211 36.1064C34.8211 36.1064 35.1456 38.5205 35.3582 39.1868Z" fill="#CACACA"/>
<path d="M54.8758 36.8384C54.3911 36.3463 53.8418 35.6474 53.0195 36.5006C53.7442 35.5615 55.4448 31.3242 55.4448 31.3242C55.4448 31.3242 54.3352 35.2819 54.8758 36.8384Z" fill="#CACACA"/>
<path d="M57.6919 41.9413C59.9419 40.3593 59.6255 35.7187 58.8872 33.1874C58.4654 31.746 57.7974 29.0741 57.1294 27.7382C56.3208 26.121 53.7544 23.9413 52.5591 22.6405C50.1333 20.039 47.6724 20.4608 45.0005 20.4608C42.3286 20.4608 39.8677 20.039 37.4419 22.6405C36.2466 23.9062 33.6802 26.121 32.8716 27.7382C32.2036 29.0741 31.5357 31.746 31.1138 33.1874C30.4107 35.7538 30.1997 41.0624 32.063 42.7148C32.063 42.7148 34.4536 35.789 45.0005 35.789C55.5474 35.789 57.6919 41.9413 57.6919 41.9413Z" fill="#6EB22A"/>
<path d="M58.957 35.8945C55.6172 31.4648 50.8008 29.0039 45 29.0039C39.1992 29.0039 34.3828 31.4648 31.043 35.8945C34.875 31.5 39.2344 29.4258 45 29.3555C50.8008 29.4258 55.1602 31.5 58.957 35.8945Z" fill="#4B8F07"/>
<path d="M52.4883 36.9141C49.957 35.6484 47.5664 35.2266 45.0352 35.1562C42.4688 35.1914 40.1133 35.6484 37.582 36.9141C35.4727 37.9336 32.7305 40.2891 31.9219 42.6094L32.4141 43.9805C33.4687 39.7969 38.6719 36.1055 45.0352 36.2109C51.3984 36.1055 56.6016 39.7969 57.6563 43.9805L58.1484 42.6094C57.3047 40.2891 54.5977 37.9336 52.4883 36.9141Z" fill="#4B8F07"/>
<path d="M46.7911 33.75L45.9825 32.8359L46.2638 32.9062C46.2989 32.9062 46.2989 32.9062 46.3341 32.9062C46.4044 32.9062 46.4747 32.8711 46.5099 32.8008C46.5802 32.7305 46.5802 32.625 46.5099 32.5547L46.088 31.8516C46.1232 31.8516 46.1583 31.8867 46.1935 31.8867C46.2286 31.8867 46.2638 31.8867 46.2989 31.8516C46.3693 31.8164 46.4044 31.7461 46.4044 31.6758L46.3341 30.0586C46.3341 29.9883 46.2989 29.918 46.2286 29.8828C46.1583 29.8477 46.088 29.8477 46.0177 29.8828L44.5763 30.6211C44.506 30.6562 44.4708 30.7266 44.4708 30.7969C44.4708 30.8672 44.506 30.9375 44.5763 30.9727L44.963 31.1836L43.8029 31.8164C43.7325 31.8516 43.6622 31.957 43.6974 32.0273C43.6974 32.1328 43.7677 32.2031 43.838 32.2031L44.506 32.3789L43.2404 33.3984C43.17 33.4687 43.1349 33.5391 43.17 33.6445C43.2052 33.75 43.2755 33.7852 43.381 33.8203L44.6818 33.9258V34.3828H45.4552V33.9961L46.6154 34.1016C46.6154 34.1016 46.6154 34.1016 46.6505 34.1016C46.7208 34.1016 46.8263 34.0664 46.8614 33.9609C46.8614 33.9258 46.8614 33.8203 46.7911 33.75ZM45.9825 30.3047L46.0529 31.5L45.6661 31.2891L45.3497 31.1133L44.9279 30.8672L45.9825 30.3047ZM44.1896 32.0273L45.2443 31.4648L45.4552 31.5703L46.0529 32.5195L45.5958 32.3789L44.8224 32.168L44.1896 32.0273ZM43.6271 33.5391L44.8575 32.5547L45.3497 32.6953L46.2989 33.7852L43.6271 33.5391Z" fill="#C42121"/>
<path d="M67.6406 96.2229C67.6406 96.2229 66.6562 81.5627 66.5859 81.1408C65.6367 76.2893 64.8633 70.8752 66.0937 65.6018C65.2148 64.4416 59.5898 63.0002 59.0625 63.2112C58.3594 64.1955 58.1133 64.7229 57.1992 67.5705C55.5469 72.7385 49.8867 82.1604 45 82.3362C40.1133 82.1604 34.4531 72.7737 32.8008 67.5705C31.8867 64.758 31.6406 64.2307 30.9375 63.2112C30.4102 63.0002 24.7852 64.4416 23.9063 65.6018C25.1016 70.8752 24.3633 76.2893 23.4141 81.1408C23.3437 81.5627 22.3594 96.2229 22.3594 96.2229H67.6406Z" fill="#59410D"/>
</g>
</g>
<defs>
<clipPath id="clip0_2173_107296">
<rect width="90" height="90" fill="white"/>
</clipPath>
</defs>
</svg>
