<svg width="260" height="261" viewBox="0 0 260 261" fill="none" xmlns="http://www.w3.org/2000/svg">
<g filter="url(#filter0_d_2169_9848)">
<rect x="40" y="40.5" width="180" height="180" rx="90" fill="white" shape-rendering="crispEdges"/>
<rect x="42" y="42.5" width="176" height="176" rx="88" stroke="#2546F0" stroke-width="4" shape-rendering="crispEdges"/>
<g clip-path="url(#clip0_2169_9848)">
<mask id="mask0_2169_9848" style="mask-type:luminance" maskUnits="userSpaceOnUse" x="85" y="85" width="90" height="91">
<path d="M175 130.5C175 105.647 154.853 85.5 130 85.5C105.147 85.5 85 105.647 85 130.5C85 155.353 105.147 175.5 130 175.5C154.853 175.5 175 155.353 175 130.5Z" fill="white"/>
</mask>
<g mask="url(#mask0_2169_9848)">
<path d="M130 175.5C154.853 175.5 175 155.353 175 130.5C175 105.647 154.853 85.5 130 85.5C105.147 85.5 85 105.647 85 130.5C85 155.353 105.147 175.5 130 175.5Z" fill="#2546F0"/>
<path d="M146.136 128.461C145.96 118.055 139.808 120.727 129.999 116.648C120.191 120.727 114.038 118.055 113.863 128.461C113.827 130.43 114.073 132.398 115.304 134.016C116.991 136.195 120.964 139.008 129.999 138.727C139.034 139.008 143.007 136.195 144.695 134.016C145.925 132.398 146.171 130.43 146.136 128.461Z" fill="#6EB22A"/>
<path d="M116.852 128.145C116.641 128.883 116.501 130.184 116.606 131.59C116.676 132.715 117.134 134.368 117.591 135.317C118.048 136.266 118.505 136.653 118.505 136.653C117.801 135.247 117.626 130.922 117.485 128.918C117.415 128.145 116.958 127.688 116.852 128.145Z" fill="#4B8F07"/>
<path d="M143.148 128.145C143.008 127.688 142.586 128.145 142.516 128.918C142.375 130.957 142.199 135.247 141.496 136.653C141.496 136.653 141.988 136.266 142.41 135.317C142.867 134.332 143.324 132.715 143.395 131.59C143.5 130.184 143.359 128.883 143.148 128.145Z" fill="#4B8F07"/>
<path d="M161.359 162.527C160.059 156.973 155.84 152.543 150.355 150.961L135.97 146.83L135.273 139.641H124.727L124.023 146.907L109.645 151.066C104.16 152.648 99.9414 157.078 98.6406 162.633L95.8984 181.723H107.148L108.379 165.902L108.906 181.723H130V181.652H151.094L151.621 165.832L152.852 181.652H164.102L161.359 162.527Z" fill="#EBD6AD"/>
<path d="M117.245 127.303C116.728 119.908 122.587 113.625 130 113.625C137.413 113.625 143.272 119.908 142.756 127.303L142.328 133.427C142.169 135.709 141.379 137.902 140.047 139.761C138.715 141.621 136.893 143.074 134.784 143.96C132.973 144.721 131.006 145.038 129.048 144.887C127.089 144.736 125.195 144.12 123.522 143.09C121.849 142.06 120.446 140.646 119.428 138.966C118.411 137.285 117.809 135.386 117.672 133.427L117.245 127.303Z" fill="#EBD6AD"/>
<path d="M118.391 117.555C120.254 114.918 120.05 112.992 126.308 111.621C132.566 110.25 138.519 112.753 141.156 114.757C141.402 114.968 142.576 117.54 142.576 117.681C142.998 121.477 142.867 128.321 142.656 128.356C142.269 128.461 139.844 119.074 137.84 122.203C136.012 125.051 132.004 126.668 129.402 127.512C128.453 127.828 128.84 125.086 127.926 125.438C126.73 125.93 125.465 127.688 124.129 127.969C122.793 128.25 125.43 124.313 125.043 123.891C124.305 123.012 122.336 126.668 121 126.246C120.473 126.071 120.437 124.137 119.98 124.559C118.68 125.754 117.766 130.957 117.308 128.742C116.71 125.719 116.528 120.192 118.391 117.555Z" fill="#EDEDED"/>
<path d="M120.36 124.687C120.146 124.278 119.852 124.707 119.498 125.26C119.678 124.481 119.823 121.606 119.823 121.606C119.823 121.606 120.148 124.02 120.36 124.687Z" fill="#CACACA"/>
<path d="M139.878 122.338C139.393 121.846 138.844 121.147 138.021 122.001C138.746 121.062 140.447 116.824 140.447 116.824C140.447 116.824 139.337 120.782 139.878 122.338Z" fill="#CACACA"/>
<path d="M142.692 127.441C144.942 125.859 144.626 121.219 143.887 118.687C143.465 117.246 142.797 114.574 142.129 113.238C141.321 111.621 138.754 109.441 137.559 108.141C135.133 105.539 132.672 105.961 130.001 105.961C127.329 105.961 124.868 105.539 122.442 108.141C121.247 109.406 118.68 111.621 117.872 113.238C117.204 114.574 116.536 117.246 116.114 118.687C115.411 121.254 115.2 126.562 117.063 128.215C117.063 128.215 119.454 121.289 130.001 121.289C140.547 121.289 142.692 127.441 142.692 127.441Z" fill="#6EB22A"/>
<path d="M143.957 121.395C140.617 116.965 135.801 114.504 130 114.504C124.199 114.504 119.383 116.965 116.043 121.395C119.875 117 124.234 114.926 130 114.855C135.801 114.926 140.16 117 143.957 121.395Z" fill="#4B8F07"/>
<path d="M137.488 122.414C134.957 121.148 132.566 120.727 130.035 120.656C127.469 120.691 125.113 121.148 122.582 122.414C120.473 123.434 117.73 125.789 116.922 128.109L117.414 129.48C118.469 125.297 123.672 121.605 130.035 121.711C136.398 121.605 141.602 125.297 142.656 129.48L143.148 128.109C142.305 125.789 139.598 123.434 137.488 122.414Z" fill="#4B8F07"/>
<path d="M131.793 119.25L130.984 118.336L131.266 118.406C131.301 118.406 131.301 118.406 131.336 118.406C131.406 118.406 131.477 118.371 131.512 118.301C131.582 118.23 131.582 118.125 131.512 118.055L131.09 117.352C131.125 117.352 131.16 117.387 131.195 117.387C131.231 117.387 131.266 117.387 131.301 117.352C131.371 117.316 131.406 117.246 131.406 117.176L131.336 115.559C131.336 115.488 131.301 115.418 131.231 115.383C131.16 115.348 131.09 115.348 131.02 115.383L129.578 116.121C129.508 116.156 129.473 116.227 129.473 116.297C129.473 116.367 129.508 116.437 129.578 116.473L129.965 116.684L128.805 117.316C128.734 117.352 128.664 117.457 128.699 117.527C128.699 117.633 128.77 117.703 128.84 117.703L129.508 117.879L128.242 118.898C128.172 118.969 128.137 119.039 128.172 119.145C128.207 119.25 128.277 119.285 128.383 119.32L129.684 119.426V119.883H130.457V119.496L131.617 119.602C131.617 119.602 131.617 119.602 131.652 119.602C131.723 119.602 131.828 119.566 131.863 119.461C131.863 119.426 131.863 119.32 131.793 119.25ZM130.984 115.805L131.055 117L130.668 116.789L130.352 116.613L129.93 116.367L130.984 115.805ZM129.192 117.527L130.246 116.965L130.457 117.07L131.055 118.02L130.598 117.879L129.824 117.668L129.192 117.527ZM128.629 119.039L129.859 118.055L130.352 118.195L131.301 119.285L128.629 119.039Z" fill="#C42121"/>
<path d="M152.641 181.723C152.641 181.723 151.656 167.063 151.586 166.641C150.637 161.789 149.863 156.375 151.094 151.102C150.215 149.942 144.59 148.5 144.062 148.711C143.359 149.696 143.113 150.223 142.199 153.071C140.547 158.239 134.887 167.66 130 167.836C125.113 167.66 119.453 158.274 117.801 153.071C116.887 150.258 116.641 149.731 115.938 148.711C115.41 148.5 109.785 149.942 108.906 151.102C110.102 156.375 109.363 161.789 108.414 166.641C108.344 167.063 107.359 181.723 107.359 181.723H152.641Z" fill="#59410D"/>
</g>
</g>
<rect x="177" y="54" width="29" height="29" rx="14.5" fill="#2546F0"/>
<rect x="177" y="54" width="29" height="29" rx="14.5" stroke="white" stroke-width="3"/>
<path fill-rule="evenodd" clip-rule="evenodd" d="M184.428 67.7936L183.014 69.208L188.67 74.8647L188.672 74.8649L199.987 63.5499L198.572 62.1357L188.671 72.0368L184.428 67.7936Z" fill="white"/>
</g>
<defs>
<filter id="filter0_d_2169_9848" x="0" y="0.5" width="260" height="260" filterUnits="userSpaceOnUse" color-interpolation-filters="sRGB">
<feFlood flood-opacity="0" result="BackgroundImageFix"/>
<feColorMatrix in="SourceAlpha" type="matrix" values="0 0 0 0 0 0 0 0 0 0 0 0 0 0 0 0 0 0 127 0" result="hardAlpha"/>
<feOffset/>
<feGaussianBlur stdDeviation="20"/>
<feComposite in2="hardAlpha" operator="out"/>
<feColorMatrix type="matrix" values="0 0 0 0 0.145098 0 0 0 0 0.27451 0 0 0 0 0.941176 0 0 0 0.4 0"/>
<feBlend mode="normal" in2="BackgroundImageFix" result="effect1_dropShadow_2169_9848"/>
<feBlend mode="normal" in="SourceGraphic" in2="effect1_dropShadow_2169_9848" result="shape"/>
</filter>
<clipPath id="clip0_2169_9848">
<rect width="90" height="90" fill="white" transform="translate(85 85.5)"/>
</clipPath>
</defs>
</svg>
