<svg width="180" height="181" viewBox="0 0 180 181" fill="none" xmlns="http://www.w3.org/2000/svg">
<g style="mix-blend-mode:luminosity">
<rect x="1" y="1.5" width="178" height="178" rx="89" fill="white"/>
<rect x="1" y="1.5" width="178" height="178" rx="89" stroke="#EEEEEE" stroke-width="2"/>
<g clip-path="url(#clip0_2169_3854)">
<mask id="mask0_2169_3854" style="mask-type:luminance" maskUnits="userSpaceOnUse" x="45" y="45" width="90" height="91">
<path d="M135 90.5C135 65.6472 114.853 45.5 90 45.5C65.1472 45.5 45 65.6472 45 90.5C45 115.353 65.1472 135.5 90 135.5C114.853 135.5 135 115.353 135 90.5Z" fill="white"/>
</mask>
<g mask="url(#mask0_2169_3854)">
<path d="M90 135.5C114.853 135.5 135 115.353 135 90.5C135 65.6472 114.853 45.5 90 45.5C65.1472 45.5 45 65.6472 45 90.5C45 115.353 65.1472 135.5 90 135.5Z" fill="#2546F0"/>
<path d="M106.136 88.4609C105.96 78.0547 99.8078 80.7266 89.9992 76.6484C80.1906 80.7266 74.0383 78.0547 73.8625 88.4609C73.8274 90.4297 74.0735 92.3984 75.3039 94.0156C76.9914 96.1953 80.9641 99.0078 89.9992 98.7266C99.0344 99.0078 103.007 96.1953 104.695 94.0156C105.925 92.3984 106.171 90.4297 106.136 88.4609Z" fill="#6EB22A"/>
<path d="M76.8523 88.145C76.6413 88.8833 76.5007 90.1841 76.6062 91.5903C76.6765 92.7153 77.1335 94.3676 77.5906 95.3169C78.0476 96.2661 78.5046 96.6528 78.5046 96.6528C77.8015 95.2466 77.6257 90.9223 77.4851 88.9184C77.4148 88.145 76.9577 87.688 76.8523 88.145Z" fill="#4B8F07"/>
<path d="M103.148 88.145C103.008 87.688 102.586 88.145 102.516 88.9184C102.375 90.9575 102.199 95.2466 101.496 96.6528C101.496 96.6528 101.988 96.2661 102.41 95.3169C102.867 94.3325 103.324 92.7153 103.395 91.5903C103.5 90.1841 103.359 88.8833 103.148 88.145Z" fill="#4B8F07"/>
<path d="M121.359 122.527C120.059 116.973 115.84 112.543 110.355 110.961L95.9695 106.83L95.2734 99.6406H84.7266L84.0234 106.907L69.6445 111.066C64.1602 112.648 59.9414 117.078 58.6406 122.633L55.8984 141.723H67.1484L68.3789 125.902L68.9062 141.723H90V141.652H111.094L111.621 125.832L112.852 141.652H124.102L121.359 122.527Z" fill="#EBD6AD"/>
<path d="M77.2446 87.3025C76.7278 79.9081 82.5873 73.625 90 73.625C97.4127 73.625 103.272 79.9078 102.756 87.3025L102.328 93.4268C102.169 95.7087 101.379 97.9015 100.047 99.7612C98.7152 101.621 96.8932 103.074 94.7841 103.96C92.9728 104.721 91.0064 105.038 89.0477 104.887C87.0891 104.736 85.1948 104.12 83.5219 103.09C81.8489 102.06 80.4456 100.646 79.4283 98.9658C78.4109 97.2853 77.8089 95.3864 77.6721 93.4268L77.2446 87.3025Z" fill="#EBD6AD"/>
<path d="M78.3909 77.555C80.2542 74.9183 80.0503 72.9924 86.3081 71.6213C92.5659 70.2502 98.519 72.7527 101.156 74.7566C101.402 74.9675 102.576 77.5399 102.576 77.6805C102.998 81.4774 102.867 88.3205 102.656 88.3557C102.269 88.4612 99.8436 79.0745 97.8397 82.2034C96.0116 85.051 92.0038 86.6682 89.4022 87.512C88.453 87.8284 88.8397 85.0862 87.9257 85.4377C86.7304 85.9299 85.4647 87.6877 84.1288 87.969C82.7929 88.2502 85.4296 84.3127 85.0429 83.8909C84.3046 83.012 82.3358 86.6682 80.9999 86.2463C80.4725 86.0705 80.4374 84.137 79.9804 84.5588C78.6796 85.7541 77.7655 90.9573 77.3085 88.7424C76.7105 85.719 76.5277 80.1917 78.3909 77.555Z" fill="#EDEDED"/>
<path d="M80.3602 84.6868C80.1463 84.2777 79.8516 84.7069 79.498 85.2598C79.6777 84.4809 79.823 81.6064 79.823 81.6064C79.823 81.6064 80.1475 84.0205 80.3602 84.6868Z" fill="#CACACA"/>
<path d="M99.8778 82.3384C99.393 81.8463 98.8438 81.1474 98.0215 82.0006C98.7461 81.0615 100.447 76.8242 100.447 76.8242C100.447 76.8242 99.3372 80.7819 99.8778 82.3384Z" fill="#CACACA"/>
<path d="M102.692 87.4413C104.942 85.8593 104.626 81.2187 103.887 78.6874C103.465 77.246 102.797 74.5741 102.129 73.2382C101.321 71.621 98.7544 69.4413 97.5591 68.1405C95.1333 65.539 92.6724 65.9608 90.0005 65.9608C87.3286 65.9608 84.8677 65.539 82.4419 68.1405C81.2466 69.4062 78.6802 71.621 77.8716 73.2382C77.2036 74.5741 76.5357 77.246 76.1138 78.6874C75.4107 81.2538 75.1997 86.5624 77.063 88.2148C77.063 88.2148 79.4536 81.289 90.0005 81.289C100.547 81.289 102.692 87.4413 102.692 87.4413Z" fill="#6EB22A"/>
<path d="M103.957 81.3945C100.617 76.9648 95.8008 74.5039 90 74.5039C84.1992 74.5039 79.3828 76.9648 76.043 81.3945C79.875 77 84.2344 74.9258 90 74.8555C95.8008 74.9258 100.16 77 103.957 81.3945Z" fill="#4B8F07"/>
<path d="M97.4883 82.4141C94.957 81.1484 92.5664 80.7266 90.0352 80.6562C87.4688 80.6914 85.1133 81.1484 82.582 82.4141C80.4727 83.4336 77.7305 85.7891 76.9219 88.1094L77.4141 89.4805C78.4687 85.2969 83.6719 81.6055 90.0352 81.7109C96.3984 81.6055 101.602 85.2969 102.656 89.4805L103.148 88.1094C102.305 85.7891 99.5977 83.4336 97.4883 82.4141Z" fill="#4B8F07"/>
<path d="M91.7931 79.25L90.9845 78.3359L91.2657 78.4062C91.3009 78.4062 91.3009 78.4062 91.3361 78.4062C91.4064 78.4062 91.4767 78.3711 91.5118 78.3008C91.5822 78.2305 91.5822 78.125 91.5118 78.0547L91.09 77.3516C91.1251 77.3516 91.1603 77.3867 91.1954 77.3867C91.2306 77.3867 91.2657 77.3867 91.3009 77.3516C91.3712 77.3164 91.4064 77.2461 91.4064 77.1758L91.3361 75.5586C91.3361 75.4883 91.3009 75.418 91.2306 75.3828C91.1603 75.3477 91.09 75.3477 91.0196 75.3828L89.5782 76.1211C89.5079 76.1562 89.4728 76.2266 89.4728 76.2969C89.4728 76.3672 89.5079 76.4375 89.5782 76.4727L89.965 76.6836L88.8048 77.3164C88.7345 77.3516 88.6642 77.457 88.6993 77.5273C88.6993 77.6328 88.7696 77.7031 88.84 77.7031L89.5079 77.8789L88.2423 78.8984C88.172 78.9688 88.1368 79.0391 88.172 79.1445C88.2072 79.25 88.2775 79.2852 88.3829 79.3203L89.6837 79.4258V79.8828H90.4572V79.4961L91.6173 79.6016C91.6173 79.6016 91.6173 79.6016 91.6525 79.6016C91.7228 79.6016 91.8282 79.5664 91.8634 79.4609C91.8634 79.4258 91.8634 79.3203 91.7931 79.25ZM90.9845 75.8047L91.0548 77L90.6681 76.7891L90.3517 76.6133L89.9298 76.3672L90.9845 75.8047ZM89.1915 77.5273L90.2462 76.9648L90.4572 77.0703L91.0548 78.0195L90.5978 77.8789L89.8243 77.668L89.1915 77.5273ZM88.629 79.0391L89.8595 78.0547L90.3517 78.1953L91.3009 79.2852L88.629 79.0391Z" fill="#C42121"/>
<path d="M112.641 141.723C112.641 141.723 111.656 127.063 111.586 126.641C110.637 121.789 109.863 116.375 111.094 111.102C110.215 109.942 104.59 108.5 104.062 108.711C103.359 109.696 103.113 110.223 102.199 113.071C100.547 118.239 94.8867 127.66 90 127.836C85.1133 127.66 79.4531 118.274 77.8008 113.071C76.8867 110.258 76.6406 109.731 75.9375 108.711C75.4102 108.5 69.7852 109.942 68.9063 111.102C70.1016 116.375 69.3633 121.789 68.4141 126.641C68.3437 127.063 67.3594 141.723 67.3594 141.723H112.641Z" fill="#59410D"/>
</g>
</g>
</g>
<defs>
<clipPath id="clip0_2169_3854">
<rect width="90" height="90" fill="white" transform="translate(45 45.5)"/>
</clipPath>
</defs>
</svg>
