<?xml version="1.0" encoding="UTF-8"?>
<svg width="20" height="20" viewBox="0 0 20 20" fill="none" xmlns="http://www.w3.org/2000/svg">
  <path fill-rule="evenodd" clip-rule="evenodd" d="M10 0C4.477 0 0 4.477 0 10C0 14.423 2.865 18.167 6.839 19.498C7.339 19.59 7.521 19.275 7.521 19.004C7.521 18.719 7.512 18.054 7.512 17.202C5 17.667 4.35 16.105 4.15 15.564C4.037 15.294 3.55 14.423 3.125 14.138C2.775 13.916 2.275 13.451 3.116 13.442C3.9 13.433 4.462 14.138 4.65 14.417C5.55 15.88 6.988 15.603 7.562 15.333C7.65 14.694 7.912 14.277 8.2 14.033C5.975 13.789 3.65 12.945 3.65 9.223C3.65 8.167 4.037 7.296 4.675 6.617C4.575 6.371 4.225 5.371 4.775 4.033C4.775 4.033 5.612 3.762 7.525 5.017C8.325 4.798 9.175 4.689 10.025 4.689C10.875 4.689 11.725 4.798 12.525 5.017C14.437 3.754 15.275 4.033 15.275 4.033C15.825 5.371 15.475 6.371 15.375 6.617C16.012 7.296 16.4 8.159 16.4 9.223C16.4 12.954 14.067 13.789 11.842 14.033C12.2 14.338 12.513 14.932 12.513 15.857C12.513 17.181 12.504 18.618 12.504 19.004C12.504 19.275 12.687 19.599 13.187 19.498C15.172 18.83 16.915 17.533 18.142 15.788C19.37 14.043 20.001 11.935 20 9.773C20 4.477 15.523 0 10 0Z" fill="white"/>
</svg> 